<svg width="77" height="52" viewBox="0 0 77 52" fill="none" xmlns="http://www.w3.org/2000/svg">
<rect width="77" height="52" rx="26" fill="#FFA608"/>
<path d="M49 16L60 21V47L46 41M46 41L30 47M46 41V27M30 47L16 41V15L26 19M30 47V27M38 35.546C38 35.546 26 26 26 17C26 9.5 32 5 38 5C44 5 50 9.5 50 17C50 26 38 35.546 38 35.546ZM40 17C40 16.4696 39.7893 15.9609 39.4142 15.5858C39.0391 15.2107 38.5304 15 38 15C37.4696 15 36.9609 15.2107 36.5858 15.5858C36.2107 15.9609 36 16.4696 36 17C36 17.5304 36.2107 18.0391 36.5858 18.4142C36.9609 18.7893 37.4696 19 38 19C38.5304 19 39.0391 18.7893 39.4142 18.4142C39.7893 18.0391 40 17.5304 40 17Z" stroke="black" stroke-width="4"/>
</svg>
